<svg viewBox="0 0 1000 1000" xmlns="http://www.w3.org/2000/svg">
  <rect width="1000" height="1000" fill="#DBFE00"/>
  <g transform="translate(125.00, 384.20) scale(0.717017) translate(-252, -170)">
    
  <path d="M393.5 384.723C393.5 402.926 385.967 415.794 365.985 415.794C348.251 415.794 337.58 405.594 337.58 383.834V358.569H252V382.997C252 442 286.159 493 370.012 493C412.175 493 445.444 479.243 464.485 457.065C479.551 439.332 486.246 417.572 486.246 387.862V170H393.552V384.723H393.5Z" fill="black"/>
  <path d="M605.096 170L487.972 487.194H580.248L595.784 440.588H703.125L718.662 487.194H817.162L699.621 170H605.096ZM616.656 376.72L637.528 314.631C642.864 299.096 649.507 273.831 649.507 273.831H650.396C650.396 273.831 657.511 299.096 662.376 314.631L682.358 376.72H616.656Z" fill="black"/>
  <path d="M1004.8 347.428H1003.91L955.105 170H834.425V487.194H916.081V288.425H916.971L969.752 487.194H1037.65L1090.43 288.425H1091.32V487.194H1175.18V170H1053.61L1004.8 347.428Z" fill="black"/>
  <path d="M1277.18 372.745L1298 170H1211.53L1232.35 372.745H1277.18Z" fill="black"/>
  <path d="M1255.63 402.455H1253.85C1230.47 402.455 1211.48 421.443 1211.48 444.825C1211.48 468.206 1230.47 487.194 1253.85 487.194H1255.63C1279.01 487.194 1298 468.206 1298 444.825C1298 421.443 1279.01 402.455 1255.63 402.455Z" fill="black"/>

  </g>
</svg>